<svg width="43" height="43" viewBox="0 0 43 43" fill="none" xmlns="http://www.w3.org/2000/svg">
<path d="M34.7444 11.2035C34.5428 10.4477 34.4084 10.0277 34.4084 10.0277C34.1901 9.24668 33.6358 9.24668 32.8127 9.1123L28.3531 8.54961C27.7988 8.45723 27.7988 8.45723 27.5805 7.97852C26.8498 6.33242 26.6231 5.375 25.8252 5.375H17.1748C16.377 5.375 16.1586 6.33242 15.4279 7.98691C15.2096 8.45723 15.2096 8.45723 14.6553 8.55801L10.1873 9.1207C9.37267 9.25508 8.78478 9.33066 8.56642 10.1117C8.56642 10.1117 8.46564 10.4561 8.25568 11.2035C7.98693 12.2029 7.87775 12.0937 8.80158 12.0937H34.1985C35.1223 12.1021 35.0215 12.2029 34.7444 11.2035Z" fill="black"/>
<path d="M31.8637 14.7812H11.1364C9.74226 14.7812 9.67508 14.966 9.75906 16.0158L11.3296 36.3904C11.4639 37.4234 11.5647 37.6334 12.7993 37.6334H30.2009C31.4354 37.6334 31.5362 37.4234 31.6706 36.3904L33.2411 16.0158C33.3251 14.9576 33.2579 14.7812 31.8637 14.7812Z" fill="black"/>
</svg>
