<svg width="37" height="37" viewBox="0 0 37 37" fill="none" xmlns="http://www.w3.org/2000/svg">
<g clip-path="url(#clip0_1_24)">
<path d="M35.8148 3.55764L33.4431 1.18588C32.6496 0.395365 31.6162 0 30.5756 0C29.54 0 28.5045 0.395221 27.7139 1.18588L12.1045 16.8018C11.4975 17.3438 11.1867 18.0303 11.0133 18.7746L9.27168 26.5359C9.1416 27.1791 9.64023 27.75 10.1967 27.75C10.2629 27.75 10.3305 27.7434 10.3988 27.7297C10.3988 27.7297 15.7486 26.5944 18.1601 26.0271C18.89 25.8553 19.5426 25.4881 20.0723 24.9583L35.7539 9.27664C37.3975 7.69629 37.3902 5.13809 35.8148 3.55764ZM33.365 6.82188L17.6834 22.5035C17.6039 22.583 17.5244 22.6264 17.4305 22.648C16.4404 22.8812 14.9265 23.2158 13.5064 23.5254L14.4033 19.5363C14.4242 19.4322 14.4748 19.3311 14.5543 19.2588L30.1709 3.64219C30.3082 3.49838 30.4672 3.46875 30.5756 3.46875C30.684 3.46875 30.8441 3.4981 30.9839 3.638L33.3556 6.01048C33.5891 6.23941 33.5891 6.59568 33.365 6.82188ZM30.6406 20.8125C29.6831 20.8125 28.9062 21.5894 28.9062 22.5469V31.7969C28.9062 32.7529 28.1272 33.5312 27.1719 33.5312H5.20312C4.24777 33.5312 3.46875 32.7529 3.46875 31.7969V9.82812C3.46875 8.87205 4.24777 8.09375 5.20312 8.09375H15.6094C16.5669 8.09375 17.3438 7.31689 17.3438 6.35938C17.3438 5.40186 16.5705 4.625 15.6094 4.625L5.13809 4.62428C2.3349 4.62428 0 6.95846 0 9.76309V31.7318C0 34.6658 2.3349 37 5.13809 37H27.0418C29.91 37 32.1799 34.6658 32.1799 31.7969L32.375 22.5469C32.375 21.593 31.6018 20.8125 30.6406 20.8125Z" fill="#AAAAAA"/>
</g>
<defs>
<clipPath id="clip0_1_24">
<rect width="37" height="37" fill="white"/>
</clipPath>
</defs>
</svg>
